<svg width="25" height="26" viewBox="0 0 25 26" fill="none" xmlns="http://www.w3.org/2000/svg">
<path d="M24.347 13.4896C24.347 19.8028 19.7891 25.0219 13.8685 25.8691C13.3147 25.9482 12.7483 25.9893 12.1735 25.9893C11.5097 25.9893 10.8584 25.9346 10.2233 25.8295C4.42749 24.8714 0 19.7106 0 13.4889C0 6.58552 5.45025 0.989258 12.1735 0.989258C18.8967 0.989258 24.347 6.58552 24.347 13.4889V13.4896Z" fill="#0A80FD"/>
<path d="M13.8684 11.0261V13.749H17.1491L16.6297 17.4177H13.8684V25.8693C13.3146 25.9485 12.7482 25.9895 12.1734 25.9895C11.5096 25.9895 10.8583 25.9348 10.2232 25.8297V17.4177H7.19775V13.749H10.2232V10.4179C10.2232 8.35068 11.8552 6.67432 13.8691 6.67432V6.67648C13.8747 6.67648 13.8803 6.67432 13.8859 6.67432H17.1498V9.84637H15.0174C14.383 9.84637 13.8691 10.374 13.8691 11.0254L13.8684 11.0261Z" fill="#EEF5FF"/>
</svg>
