<svg width="25" height="26" viewBox="0 0 25 26" fill="none" xmlns="http://www.w3.org/2000/svg">
<path d="M24.6941 13.4896C24.6941 19.8028 20.1363 25.0219 14.2157 25.8691C13.6619 25.9482 13.0955 25.9893 12.5207 25.9893C11.8568 25.9893 11.2056 25.9346 10.5705 25.8295C4.77466 24.8714 0.347168 19.7106 0.347168 13.4889C0.347168 6.58552 5.79742 0.989258 12.5207 0.989258C19.2439 0.989258 24.6941 6.58552 24.6941 13.4889V13.4896Z" fill="#0A80FD"/>
<path d="M16.3326 5.98584H8.70791C6.60142 5.98584 4.88818 7.74497 4.88818 9.9079V17.0704C4.88818 19.2333 6.60142 20.9925 8.70791 20.9925H16.3326C18.4391 20.9925 20.1524 19.2333 20.1524 17.0704V9.9079C20.1524 7.74497 18.4391 5.98584 16.3326 5.98584ZM6.23549 9.9079C6.23549 8.50794 7.34447 7.36925 8.70791 7.36925H16.3326C17.6961 7.36925 18.805 8.50794 18.805 9.9079V17.0704C18.805 18.4704 17.6961 19.609 16.3326 19.609H8.70791C7.34447 19.609 6.23549 18.4704 6.23549 17.0704V9.9079Z" fill="#EEF5FF"/>
<path d="M12.5202 17.1384C14.4794 17.1384 16.0735 15.5016 16.0735 13.4899C16.0735 11.4781 14.4794 9.84131 12.5202 9.84131C10.5609 9.84131 8.9668 11.4781 8.9668 13.4899C8.9668 15.5016 10.5609 17.1384 12.5202 17.1384ZM12.5202 11.2254C13.7364 11.2254 14.7255 12.241 14.7255 13.4899C14.7255 14.7387 13.7364 15.7543 12.5202 15.7543C11.3039 15.7543 10.3148 14.7387 10.3148 13.4899C10.3148 12.241 11.3039 11.2254 12.5202 11.2254Z" fill="#EEF5FF"/>
<path d="M16.4024 10.4298C16.9302 10.4298 17.3599 9.98859 17.3599 9.44659C17.3599 8.9046 16.9302 8.46338 16.4024 8.46338C15.8745 8.46338 15.4448 8.9046 15.4448 9.44659C15.4448 9.98859 15.8745 10.4298 16.4024 10.4298Z" fill="#EEF5FF"/>
</svg>
