<svg width="26" height="26" viewBox="0 0 26 26" fill="none" xmlns="http://www.w3.org/2000/svg">
<path d="M25.0818 13.4896C25.0818 19.8028 20.524 25.0219 14.6034 25.8691C14.0496 25.9482 13.4832 25.9893 12.9084 25.9893C12.2445 25.9893 11.5933 25.9346 10.9582 25.8295C5.16234 24.8714 0.734863 19.7107 0.734863 13.4889C0.734863 6.58552 6.18512 0.989258 12.9084 0.989258C19.6316 0.989258 25.0818 6.58552 25.0818 13.4889V13.4896Z" fill="#0A80FD"/>
<path d="M6.65787 9.26834C6.33331 8.95884 6.17139 8.57592 6.17139 8.1203C6.17139 7.66468 6.33331 7.26448 6.65787 6.95498C6.98243 6.64548 7.40022 6.49072 7.91265 6.49072C8.42508 6.49072 8.82606 6.64548 9.14992 6.95498C9.47448 7.26448 9.6364 7.65317 9.6364 8.1203C9.6364 8.58744 9.47448 8.95884 9.14992 9.26834C8.82536 9.57785 8.41316 9.73259 7.91265 9.73259C7.41214 9.73259 6.98243 9.57785 6.65787 9.26834ZM9.363 11.0433V20.5278H6.44477V11.0433H9.363Z" fill="#EEF5FF"/>
<path d="M19.0808 11.9794C19.7166 12.6884 20.0349 13.6622 20.0349 14.9017V20.3605H17.2624V15.2868C17.2624 14.662 17.1047 14.1761 16.7893 13.8299C16.4738 13.4837 16.0497 13.311 15.517 13.311C14.9842 13.311 14.5601 13.4844 14.2446 13.8299C13.9292 14.1761 13.7715 14.662 13.7715 15.2868V20.3605H10.9829V11.017H13.7715V12.2565C14.054 11.8433 14.4346 11.5173 14.9134 11.2769C15.3915 11.0372 15.9298 10.917 16.5278 10.917C17.5933 10.917 18.4443 11.2718 19.0801 11.9801L19.0808 11.9794Z" fill="#EEF5FF"/>
</svg>
