<svg width="25" height="26" viewBox="0 0 25 26" fill="none" xmlns="http://www.w3.org/2000/svg">
<path d="M24.7347 13.4896C24.7347 19.8028 20.1768 25.0219 14.2562 25.8691C13.7024 25.9482 13.136 25.9893 12.5612 25.9893C11.8973 25.9893 11.2461 25.9346 10.611 25.8295C4.81519 24.8714 0.387695 19.7107 0.387695 13.4889C0.387695 6.58552 5.83793 0.989258 12.5612 0.989258C19.2844 0.989258 24.7347 6.58552 24.7347 13.4889V13.4896Z" fill="#0A80FD"/>
<path d="M4.70533 12.9262C4.73968 12.9082 4.77402 12.8916 4.80837 12.8758C5.3937 12.5972 5.98675 12.3367 6.57909 12.0761C6.61133 12.0761 6.6653 12.0387 6.69474 12.025C6.74031 12.0049 6.78587 11.9847 6.83214 11.9645C6.91976 11.9257 7.00809 11.8875 7.09571 11.8487C7.27166 11.7716 7.44691 11.6939 7.62286 11.6169C7.97406 11.4629 8.32596 11.3081 8.67716 11.1534C9.38026 10.8446 10.0834 10.5358 10.7865 10.227C11.4896 9.91822 12.1926 9.60944 12.8957 9.30065C13.5988 8.99187 14.302 8.68308 15.0051 8.3743C15.7081 8.06551 16.4113 7.75673 17.1144 7.44795C17.2707 7.37957 17.4403 7.27592 17.6071 7.24569C17.748 7.2205 17.8854 7.17011 18.0263 7.14276C18.2948 7.09022 18.5913 7.06863 18.8486 7.18307C18.9376 7.22266 19.019 7.2788 19.0883 7.34862C19.4143 7.68043 19.3687 8.22459 19.3001 8.691C18.8192 11.9415 18.3383 15.1913 17.8567 18.4418C17.7908 18.8874 17.7018 19.3768 17.3583 19.6582C17.0681 19.8965 16.6552 19.9238 16.2977 19.8224C15.9395 19.7209 15.6233 19.5071 15.3135 19.2962C14.0279 18.4224 12.7422 17.5479 11.4566 16.674C11.151 16.466 10.811 16.1954 10.8145 15.819C10.8166 15.5922 10.9484 15.39 11.083 15.21C12.1997 13.7143 13.8127 12.6858 15.0114 11.2584C15.1803 11.0576 15.3135 10.6934 15.0815 10.5775C14.9434 10.5084 14.7842 10.602 14.6588 10.692C13.0738 11.8228 11.4889 12.9535 9.9039 14.0836C9.38657 14.4521 8.8447 14.8321 8.22151 14.9228C7.66422 15.0042 7.10273 14.8451 6.56297 14.6817C6.11082 14.5449 5.65938 14.4053 5.20934 14.2606C4.9703 14.1843 4.72354 14.1023 4.53848 13.9288C4.35342 13.7561 4.24756 13.4653 4.35902 13.235C4.42842 13.0903 4.56443 12.9989 4.70673 12.9247L4.70533 12.9262Z" fill="#EEF5FF"/>
</svg>
