<svg width="26" height="26" viewBox="0 0 26 26" fill="none" xmlns="http://www.w3.org/2000/svg">
<path d="M25.0408 13.4896C25.0408 19.8028 20.483 25.0219 14.5623 25.8691C14.0086 25.9482 13.4421 25.9893 12.8673 25.9893C12.2035 25.9893 11.5523 25.9346 10.9172 25.8295C5.12134 24.8714 0.693848 19.7106 0.693848 13.4889C0.693848 6.58552 6.14408 0.989258 12.8673 0.989258C19.5906 0.989258 25.0408 6.58552 25.0408 13.4889V13.4896Z" fill="#0A80FD"/>
<path d="M18.8243 9.99106V12.3793C18.417 12.339 17.8899 12.244 17.3046 12.0237C16.5412 11.7365 15.9727 11.3435 15.6011 11.0391V15.8673L15.592 15.8522C15.5983 15.9479 15.6011 16.0451 15.6011 16.1437C15.6011 18.542 13.7014 20.4933 11.365 20.4933C9.0286 20.4933 7.12891 18.5413 7.12891 16.1437C7.12891 13.7461 9.0286 11.7934 11.365 11.7934C11.5935 11.7934 11.8179 11.8121 12.0373 11.8481V14.2025C11.8263 14.1247 11.6006 14.083 11.365 14.083C10.2588 14.083 9.35808 15.0072 9.35808 16.1437C9.35808 17.2802 10.2588 18.2044 11.365 18.2044C12.4712 18.2044 13.372 17.2795 13.372 16.1437C13.372 16.1012 13.3713 16.0588 13.3685 16.0163V6.6333H15.6937C15.7021 6.83556 15.7105 7.03925 15.7182 7.24151C15.7336 7.63955 15.8717 8.02175 16.1122 8.33485C16.3947 8.70266 16.8111 9.1302 17.3971 9.47138C17.9453 9.79024 18.4598 9.927 18.8243 9.99178V9.99106Z" fill="#EEF5FF"/>
</svg>
