<svg width="25" height="26" viewBox="0 0 25 26" fill="none" xmlns="http://www.w3.org/2000/svg">
<path d="M24.388 13.4896C24.388 19.8028 19.8301 25.0219 13.9095 25.8691C13.3557 25.9482 12.7893 25.9893 12.2145 25.9893C11.5506 25.9893 10.8994 25.9346 10.2643 25.8295C4.46849 24.8714 0.0410156 19.7106 0.0410156 13.4889C0.0410156 6.58552 5.49123 0.989258 12.2145 0.989258C18.9377 0.989258 24.388 6.58552 24.388 13.4889V13.4896Z" fill="#0A80FD"/>
<path d="M19.41 8.91023C19.0721 9.26076 18.6038 9.47742 18.0851 9.47742C18.0192 9.47742 17.9533 9.47382 17.8896 9.46662C18.4307 9.13336 18.8485 8.61153 19.0567 7.98892C19.0567 7.98892 19.0574 7.98892 19.0574 7.9882C19.0861 7.90471 19.1107 7.82049 19.1303 7.7334C18.702 8.20341 18.1167 8.52155 17.4598 8.59713C17.3589 8.60937 17.2565 8.61512 17.1528 8.61512C17.1198 8.61512 17.0883 8.6144 17.0567 8.61225C16.8345 8.37256 16.5696 8.17462 16.2759 8.02923C15.9485 7.86512 15.5826 7.76867 15.1963 7.75643C15.1648 7.75427 15.1332 7.75355 15.1003 7.75355C14.7729 7.75355 14.4589 7.81329 14.1687 7.92342C14.0944 7.95149 14.0222 7.98172 13.9514 8.01699C13.0316 8.45965 12.3951 9.41912 12.3951 10.5312C12.3951 10.7593 12.4225 10.981 12.4722 11.1926C12.1904 11.1811 11.9115 11.1531 11.6381 11.1113C11.5504 11.0969 11.4628 11.0818 11.3759 11.0645C10.6784 10.9314 10.0132 10.7025 9.39488 10.3915C8.8418 10.1137 8.32587 9.77109 7.8569 9.37233C7.46224 9.03835 7.10124 8.66551 6.77878 8.25812C6.76476 8.24084 6.75072 8.22285 6.7374 8.20557C6.71847 8.23508 6.70096 8.26459 6.68554 8.29554C6.45982 8.70078 6.33224 9.16935 6.33224 9.66888C6.33224 9.68399 6.33222 9.70055 6.33292 9.71566C6.33853 10.0899 6.41563 10.4462 6.55373 10.7701C6.61261 10.9141 6.68413 11.0501 6.76615 11.179C7.00799 11.5612 7.33814 11.8793 7.7279 12.0996C7.74542 12.1111 7.76365 12.1204 7.78187 12.1291C7.75383 12.1348 7.72511 12.1399 7.69637 12.1427C7.61646 12.1535 7.53374 12.1593 7.45102 12.1593C7.03603 12.1593 6.64979 12.0261 6.33364 11.7994C6.33154 11.8232 6.33152 11.8476 6.33152 11.8721C6.33152 12.6653 6.65538 13.3808 7.17412 13.8853C7.57789 14.2812 8.10015 14.5468 8.68057 14.6245C8.47167 14.703 8.24593 14.7455 8.0111 14.7455C7.75664 14.7455 7.51269 14.6958 7.28977 14.6044C7.62204 15.7136 8.61258 16.5269 9.79306 16.5629C9.07173 17.3323 8.05876 17.8103 6.93787 17.8103C6.24108 17.8103 5.58636 17.6253 5.01855 17.3014C6.38339 18.5142 8.16321 19.2469 10.1099 19.2469C14.4119 19.2469 17.8987 15.6668 17.8987 11.2495C17.8987 11.0062 17.8881 10.7658 17.8671 10.5283C18.5786 10.2397 19.1429 9.65016 19.41 8.91095V8.91023Z" fill="#EEF5FF"/>
</svg>
