<svg width="58" height="59" viewBox="0 0 58 59" fill="none" xmlns="http://www.w3.org/2000/svg">
<rect x="0.471436" y="0.571411" width="57.3575" height="57.8571" rx="8" fill="#0A80FD"/>
<path d="M39.5867 18.1018H36.3703V17.0509C36.3703 16.7723 36.2573 16.505 36.0563 16.3079C35.8552 16.1108 35.5825 16.0001 35.2982 16.0001C35.0138 16.0001 34.7411 16.1108 34.5401 16.3079C34.339 16.505 34.226 16.7723 34.226 17.0509V18.1018H23.5047V17.0509C23.5047 16.7723 23.3917 16.505 23.1907 16.3079C22.9896 16.1108 22.7169 16.0001 22.4326 16.0001C22.1482 16.0001 21.8755 16.1108 21.6744 16.3079C21.4734 16.505 21.3604 16.7723 21.3604 17.0509V18.1018H18.144C17.5753 18.1018 17.0299 18.3232 16.6278 18.7173C16.2257 19.1115 15.9998 19.646 15.9998 20.2034V41.2199C15.9998 41.7773 16.2257 42.3119 16.6278 42.706C17.0299 43.1001 17.5753 43.3216 18.144 43.3216H39.5867C40.1554 43.3216 40.7008 43.1001 41.1029 42.706C41.5051 42.3119 41.731 41.7773 41.731 41.2199V20.2034C41.731 19.646 41.5051 19.1115 41.1029 18.7173C40.7008 18.3232 40.1554 18.1018 39.5867 18.1018ZM22.9686 38.0674C22.6506 38.0674 22.3396 37.975 22.0752 37.8018C21.8107 37.6286 21.6046 37.3824 21.4828 37.0944C21.3611 36.8064 21.3293 36.4894 21.3913 36.1837C21.4534 35.8779 21.6065 35.5971 21.8315 35.3766C22.0564 35.1562 22.3429 35.0061 22.6549 34.9452C22.9668 34.8844 23.2902 34.9156 23.5841 35.0349C23.8779 35.1542 24.1291 35.3563 24.3058 35.6155C24.4825 35.8747 24.5768 36.1794 24.5768 36.4912C24.5768 36.9092 24.4074 37.3102 24.1058 37.6058C23.8042 37.9014 23.3951 38.0674 22.9686 38.0674ZM28.8654 38.0674C28.5473 38.0674 28.2364 37.975 27.9719 37.8018C27.7074 37.6286 27.5013 37.3824 27.3796 37.0944C27.2579 36.8064 27.226 36.4894 27.2881 36.1837C27.3501 35.8779 27.5033 35.5971 27.7282 35.3766C27.9531 35.1562 28.2397 35.0061 28.5516 34.9452C28.8636 34.8844 29.1869 34.9156 29.4808 35.0349C29.7747 35.1542 30.0258 35.3563 30.2025 35.6155C30.3792 35.8747 30.4736 36.1794 30.4736 36.4912C30.4736 36.9092 30.3041 37.3102 30.0025 37.6058C29.7009 37.9014 29.2919 38.0674 28.8654 38.0674ZM28.8654 32.8133C28.5473 32.8133 28.2364 32.7209 27.9719 32.5477C27.7074 32.3745 27.5013 32.1283 27.3796 31.8403C27.2579 31.5523 27.226 31.2353 27.2881 30.9296C27.3501 30.6238 27.5033 30.3429 27.7282 30.1225C27.9531 29.9021 28.2397 29.7519 28.5516 29.6911C28.8636 29.6303 29.1869 29.6615 29.4808 29.7808C29.7747 29.9001 30.0258 30.1022 30.2025 30.3614C30.3792 30.6206 30.4736 30.9253 30.4736 31.2371C30.4736 31.6551 30.3041 32.056 30.0025 32.3516C29.7009 32.6472 29.2919 32.8133 28.8654 32.8133ZM34.7621 38.0674C34.444 38.0674 34.1331 37.975 33.8686 37.8018C33.6042 37.6286 33.398 37.3824 33.2763 37.0944C33.1546 36.8064 33.1227 36.4894 33.1848 36.1837C33.2469 35.8779 33.4 35.5971 33.6249 35.3766C33.8498 35.1562 34.1364 35.0061 34.4484 34.9452C34.7603 34.8844 35.0837 34.9156 35.3775 35.0349C35.6714 35.1542 35.9226 35.3563 36.0993 35.6155C36.276 35.8747 36.3703 36.1794 36.3703 36.4912C36.3703 36.9092 36.2009 37.3102 35.8993 37.6058C35.5977 37.9014 35.1886 38.0674 34.7621 38.0674ZM34.7621 32.8133C34.444 32.8133 34.1331 32.7209 33.8686 32.5477C33.6042 32.3745 33.398 32.1283 33.2763 31.8403C33.1546 31.5523 33.1227 31.2353 33.1848 30.9296C33.2469 30.6238 33.4 30.3429 33.6249 30.1225C33.8498 29.9021 34.1364 29.7519 34.4484 29.6911C34.7603 29.6303 35.0837 29.6615 35.3775 29.7808C35.6714 29.9001 35.9226 30.1022 36.0993 30.3614C36.276 30.6206 36.3703 30.9253 36.3703 31.2371C36.3703 31.6551 36.2009 32.056 35.8993 32.3516C35.5977 32.6472 35.1886 32.8133 34.7621 32.8133ZM39.5867 24.4067H18.144V20.2034H21.3604V21.2542C21.3604 21.5329 21.4734 21.8002 21.6744 21.9973C21.8755 22.1944 22.1482 22.3051 22.4326 22.3051C22.7169 22.3051 22.9896 22.1944 23.1907 21.9973C23.3917 21.8002 23.5047 21.5329 23.5047 21.2542V20.2034H34.226V21.2542C34.226 21.5329 34.339 21.8002 34.5401 21.9973C34.7411 22.1944 35.0138 22.3051 35.2982 22.3051C35.5825 22.3051 35.8552 22.1944 36.0563 21.9973C36.2573 21.8002 36.3703 21.5329 36.3703 21.2542V20.2034H39.5867V24.4067Z" fill="#FEFEFE"/>
</svg>
