<svg width="20" height="27" viewBox="0 0 20 27" fill="none" xmlns="http://www.w3.org/2000/svg">
<path d="M2.38097 10C2.38097 9.13332 2.53335 8.30952 2.80002 7.53331L0.590481 6.61902C0.209525 7.67619 0 8.81427 0 10.0001C0 11.1763 0.209525 12.3191 0.60002 13.3811L2.80005 12.4668C2.53338 11.6906 2.38097 10.8667 2.38097 10Z" fill="#0A80FD"/>
<path d="M6.65272 16.8336C5.13841 16.0907 3.90984 14.8621 3.16683 13.3477L0.966797 14.2572C1.95728 16.3286 3.64778 18.0335 5.74306 19.0286L6.65272 16.8336Z" fill="#0A80FD"/>
<path d="M6.65247 3.16694L5.73817 0.957397C3.64292 1.94313 1.94294 3.64313 0.957031 5.73854L3.16657 6.65283C3.90944 5.13852 5.13803 3.90995 6.65247 3.16694Z" fill="#0A80FD"/>
<path d="M9.9983 2.38097C10.865 2.38097 11.6888 2.53335 12.465 2.80002L13.3793 0.590481C12.3221 0.209526 11.1841 0 9.99824 0C8.81244 0 7.67441 0.209526 6.61719 0.590481L7.53148 2.80002C8.30768 2.53335 9.13161 2.38097 9.9983 2.38097Z" fill="#0A80FD"/>
<path d="M13.8097 21.905H11.9049V19.805C12.4096 19.705 12.9049 19.5717 13.3763 19.3954L12.4668 17.2002C11.6906 17.4669 10.8668 17.6192 10.0001 17.6192C9.1334 17.6192 8.3096 17.4669 7.53339 17.2002L6.62385 19.3954C7.09529 19.5716 7.59054 19.705 8.09529 19.805V21.905H6.19051C6.00003 21.905 5.82385 22.0193 5.75241 22.2002C5.67622 22.3764 5.71907 22.5812 5.85241 22.7193L9.66196 26.5288C9.7572 26.6193 9.87625 26.6669 10.0001 26.6669C10.1239 26.6669 10.2429 26.6193 10.3382 26.5288L14.1477 22.7193C14.2811 22.5812 14.3239 22.3764 14.2477 22.2002C14.1763 22.0193 14.0002 21.905 13.8097 21.905Z" fill="#0A80FD"/>
<path d="M10.0007 3.33398C6.32464 3.33398 3.33398 6.32448 3.33398 10.0007C3.33398 13.6769 6.32448 16.6674 10.0007 16.6674C13.6769 16.6674 16.6674 13.6769 16.6674 10.0007C16.6674 6.32448 13.6769 3.33398 10.0007 3.33398ZM9.2864 9.52436H10.715C11.8959 9.52436 12.8578 10.4863 12.8578 11.6672C12.8578 12.8482 11.8959 13.8101 10.715 13.8101H10.4769V14.2863C10.4769 14.5482 10.2626 14.7625 10.0007 14.7625C9.73878 14.7625 9.52449 14.5482 9.52449 14.2863V13.8101H7.61972C7.35781 13.8101 7.14352 13.5958 7.14352 13.3339C7.14352 13.072 7.35781 12.8577 7.61972 12.8577H10.7149C11.372 12.8577 11.9054 12.3243 11.9054 11.6672C11.9054 11.0101 11.372 10.4767 10.7149 10.4767H9.28632C8.10536 10.4767 7.14346 9.51485 7.14346 8.33389C7.14346 7.15293 8.10536 6.19103 9.28632 6.19103H9.52442V5.71483C9.52442 5.45293 9.7387 5.23864 10.0006 5.23864C10.2625 5.23864 10.4768 5.45293 10.4768 5.71483V6.19103H12.3816C12.6435 6.19103 12.8578 6.40531 12.8578 6.66722C12.8578 6.92913 12.6435 7.14342 12.3816 7.14342H9.2864C8.62926 7.14342 8.09593 7.67675 8.09593 8.33389C8.09593 8.99102 8.62926 9.52436 9.2864 9.52436Z" fill="#0A80FD"/>
<path d="M13.3478 16.8333L14.2573 19.0286C16.3526 18.0333 18.0431 16.3286 19.0336 14.2572L16.8336 13.3477C16.0907 14.862 14.8622 16.0903 13.3478 16.8333Z" fill="#0A80FD"/>
<path d="M16.8335 6.65259L19.0431 5.73354C18.0526 3.64304 16.3574 1.94288 14.2619 0.957275L13.3477 3.16682C14.862 3.90968 16.0905 5.13815 16.8335 6.65259Z" fill="#0A80FD"/>
<path d="M19.4088 6.61426L17.1992 7.53331C17.4659 8.30951 17.6183 9.13332 17.6183 10C17.6183 10.8667 17.4659 11.6905 17.1992 12.4667L19.3993 13.381C19.7897 12.3191 19.9993 11.1762 19.9993 9.99995C19.9993 8.80948 19.7897 7.6713 19.4088 6.61426Z" fill="#0A80FD"/>
</svg>
