<svg width="27" height="28" viewBox="0 0 27 28" fill="none" xmlns="http://www.w3.org/2000/svg">
<path fill-rule="evenodd" clip-rule="evenodd" d="M13.5 0.5C20.951 0.5 27 6.54896 27 14C27 21.451 20.951 27.5 13.5 27.5C6.04896 27.5 0 21.451 0 14C0 6.54896 6.04896 0.5 13.5 0.5ZM13.5 3.875C7.91196 3.875 3.375 8.41196 3.375 14C3.375 19.588 7.91196 24.125 13.5 24.125C19.088 24.125 23.625 19.588 23.625 14C23.625 8.41196 19.088 3.875 13.5 3.875ZM13.5 4.83929C18.5557 4.83929 22.6607 8.94425 22.6607 14C22.6607 19.0557 18.5557 23.1607 13.5 23.1607C8.44425 23.1607 4.33929 19.0557 4.33929 14C4.33929 8.94425 8.44425 4.83929 13.5 4.83929ZM13.526 19.131C14.8944 20.7616 17.3292 20.9747 18.9598 19.6064C20.5904 18.238 20.8035 15.8032 19.4352 14.1726C19.2645 13.9682 18.9598 13.9421 18.7563 14.1128L17.279 15.3529C17.0746 15.5236 17.0486 15.8283 17.2193 16.0318C17.5616 16.4396 17.5076 17.0481 17.1006 17.3904C16.6928 17.7327 16.0843 17.6787 15.742 17.2718C15.5703 17.0674 15.2666 17.0414 15.0621 17.212L13.5849 18.4511C13.3814 18.6228 13.3544 18.9275 13.526 19.131ZM15.3601 18.2216C16.0583 18.7202 17.0322 18.7057 17.7197 18.1291C18.4082 17.5515 18.5914 16.5949 18.2211 15.8206L18.9762 15.187C19.6791 16.3828 19.4371 17.9468 18.3397 18.8677C17.2424 19.7886 15.66 19.7549 14.6051 18.8542L15.3601 18.2216ZM9.72772 10.8352C9.78268 11.0956 10.0392 11.2624 10.2995 11.2065L12.1857 10.8053C12.446 10.7504 12.6129 10.4939 12.5569 10.2335C12.447 9.71375 12.7797 9.20075 13.3004 9.08985C13.8211 8.97993 14.3331 9.31261 14.444 9.83332C14.499 10.0927 14.7555 10.2595 15.0159 10.2046L16.902 9.80343C17.1624 9.7475 17.3292 9.49196 17.2733 9.23161C16.8306 7.14875 14.7806 5.81803 12.6987 6.26064C10.6168 6.70325 9.28511 8.75332 9.72772 10.8352ZM16.1904 8.96836L15.227 9.17375C14.8452 8.40522 13.9783 7.96068 13.0998 8.14679C12.2214 8.33386 11.61 9.09179 11.5734 9.95L10.61 10.1544C10.5502 8.76972 11.4981 7.50168 12.8992 7.20372C14.3004 6.90575 15.6812 7.6791 16.1904 8.96836ZM19.7679 11.1071C19.7679 10.841 19.5519 10.625 19.2857 10.625H16.3929C16.1267 10.625 15.9107 10.841 15.9107 11.1071V13.0357C15.9107 13.3019 16.1267 13.5179 16.3929 13.5179H19.2857C19.5519 13.5179 19.7679 13.3019 19.7679 13.0357V11.1071ZM18.8036 11.5893V12.5536H16.875V11.5893H18.8036ZM12.0536 17.8571C12.0536 17.591 11.8376 17.375 11.5714 17.375H8.67857C8.41243 17.375 8.19643 17.591 8.19643 17.8571V19.7857C8.19643 20.0519 8.41243 20.2679 8.67857 20.2679H11.5714C11.8376 20.2679 12.0536 20.0519 12.0536 19.7857V17.8571ZM11.0893 18.3393V19.3036H9.16071V18.3393H11.0893ZM13.3419 13.5796C13.3968 13.3192 13.231 13.0627 12.9706 13.0078L11.0845 12.6066C10.8241 12.5516 10.5676 12.7175 10.5126 12.9779C10.4018 13.4986 9.88875 13.8312 9.369 13.7213C8.84829 13.6104 8.51561 13.0974 8.62554 12.5777C8.68146 12.3173 8.51464 12.0608 8.25429 12.0049L6.36814 11.6047C6.10779 11.5488 5.85129 11.7156 5.79632 11.976C5.35372 14.0579 6.68443 16.1079 8.76729 16.5505C10.8492 16.9931 12.8992 15.6624 13.3419 13.5796ZM6.67864 12.6558L7.64196 12.8612C7.67861 13.7184 8.28996 14.4773 9.16843 14.6644C10.0469 14.8505 10.9128 14.406 11.2956 13.6374L12.259 13.8428C11.7498 15.1321 10.369 15.9054 8.96786 15.6075C7.56675 15.3095 6.61886 14.0415 6.67864 12.6558Z" fill="#0A80FD"/>
</svg>
