<svg width="27" height="28" viewBox="0 0 27 28" fill="none" xmlns="http://www.w3.org/2000/svg">
<path d="M22.588 21.0453H17.6052C16.3449 21.0453 15.3209 20.0201 15.3209 18.761C15.3209 17.5007 16.3449 16.4768 17.6052 16.4768H18.5731C21.4851 16.4768 23.8541 14.1078 23.8541 11.1958V11.0323C24.4341 10.9404 24.853 10.6886 24.853 10.3902C24.853 10.0632 24.3529 9.78992 23.6858 9.72426C23.8266 9.56434 24.0068 9.35669 24.2121 9.10488C25.2814 7.79565 27 5.39919 27 3.49915C27 0.739914 24.8375 0 23.3768 0C21.9161 0 19.7536 0.739945 19.7536 3.49915C19.7536 5.39913 21.4722 7.79541 22.5415 9.10365C22.7492 9.35547 22.9282 9.56432 23.069 9.72304C22.4019 9.78868 21.9006 10.062 21.9006 10.389C21.9006 10.6873 22.3195 10.9392 22.8996 11.0311V11.1946C22.8996 13.5803 20.959 15.5208 18.5734 15.5208H17.6055C15.82 15.5208 14.3663 16.9744 14.3663 18.7599C14.3663 20.5465 15.8199 21.9991 17.6055 21.9991H22.5882C23.8509 21.9991 24.8773 23.0254 24.8773 24.2881C24.8773 25.5508 23.8509 26.5771 22.5882 26.5771L8.68817 26.5783C8.51393 26.2275 7.75489 25.9482 6.77151 25.8694C7.00662 25.6021 7.30022 25.2608 7.63317 24.8526C9.46631 22.6089 12.407 18.5081 12.407 15.2574C12.407 10.5313 8.70739 9.26151 6.20577 9.26151C3.70415 9.26151 0 10.5313 0 15.2574C0 18.5085 2.94065 22.6089 4.77379 24.8526C5.10797 25.2608 5.40274 25.6021 5.63784 25.8694C4.51599 25.9601 3.6758 26.3098 3.6758 26.7299C3.6758 27.2192 4.80718 27.6154 6.20351 27.6154C6.57827 27.6154 6.93032 27.5844 7.25017 27.5343H22.5871C24.3761 27.5343 25.8308 26.0795 25.8308 24.2906C25.832 22.5016 24.3772 21.0456 22.5883 21.0456L22.588 21.0453ZM21.4005 3.49914C21.4005 2.40595 22.2837 1.52277 23.3769 1.52277C24.4701 1.52277 25.3532 2.40592 25.3532 3.49914C25.3532 4.59236 24.4701 5.4755 23.3769 5.4755C22.2837 5.4755 21.4005 4.59236 21.4005 3.49914ZM2.81618 15.2569C2.81618 13.3855 4.33426 11.8723 6.20565 11.8723C8.07221 11.8723 9.59023 13.3856 9.59023 15.2569C9.59023 17.1234 8.07215 18.6414 6.20565 18.6414C4.33433 18.6414 2.81618 17.1234 2.81618 15.2569Z" fill="#0A80FD"/>
</svg>
