<svg width="23" height="27" viewBox="0 0 23 27" fill="none" xmlns="http://www.w3.org/2000/svg">
<path d="M19.1212 7.28783C19.1212 8.44716 17.3828 8.44716 17.3828 7.28783C17.3828 6.1285 19.1212 6.1285 19.1212 7.28783Z" fill="#0A80FD"/>
<path d="M2.98047 13.9643L5.34365 12.8625L5.71089 13.6503L3.34771 14.752L2.98047 13.9643Z" fill="#0A80FD"/>
<path d="M6.08421 8.5913C6.08421 10.3297 3.47656 10.3297 3.47656 8.5913C3.47656 6.85287 6.08421 6.85287 6.08421 8.5913Z" fill="#0A80FD"/>
<path d="M15.9746 12.7571L17.2046 11.5282L19.6633 13.987L18.4334 15.2158L15.9746 12.7571Z" fill="#0A80FD"/>
<path d="M9.56055 7.28748H13.0374V8.15669H9.56055V7.28748Z" fill="#0A80FD"/>
<path d="M20.4263 3.81073H14.7765V2.07229C14.7754 1.1129 13.9975 0.334947 13.0381 0.333862H9.56124C8.60185 0.334949 7.82389 1.1129 7.82281 2.07229V3.81073H2.17304C0.973522 3.81181 0.00108478 4.78425 0 5.98377V18.1528C0.00108645 19.3523 0.973522 20.3248 2.17304 20.3258H3.47686V19.7152C3.47686 19.0774 3.82455 18.4918 4.3841 18.1876L8.25761 16.0743V15.9797C8.25761 12.0781 10.347 10.7644 11.3 10.7644C12.253 10.7644 14.3424 12.0781 14.3424 15.9797V16.0743L18.217 18.1886C18.7755 18.4929 19.1232 19.0785 19.1232 19.7152V20.3258H20.427C21.6265 20.3247 22.599 19.3523 22.6 18.1528V5.98377C22.599 4.78425 21.6265 3.81181 20.427 3.81073H20.4263ZM18.2533 5.54916C18.9562 5.54916 19.5908 5.97289 19.8591 6.62265C20.1286 7.27238 19.9797 8.0199 19.4821 8.51645C18.9855 9.01409 18.238 9.16293 17.5883 8.89349C16.9386 8.62512 16.5148 7.99059 16.5148 7.28762C16.5159 6.32823 17.2939 5.55024 18.2533 5.54916ZM8.69188 2.07229C8.69297 1.59204 9.08085 1.20416 9.5611 1.20308H13.038C13.5182 1.20416 13.9061 1.59204 13.9072 2.07229V3.81073H8.69188V2.07229ZM2.9278 15.9069L1.82499 13.5437L5.76359 11.7064L6.86639 14.0696L2.9278 15.9069ZM4.78033 10.7645C3.90132 10.7645 3.10926 10.2353 2.77242 9.42261C2.4367 8.61097 2.62249 7.67658 3.24397 7.05509C3.86547 6.43359 4.79988 6.24781 5.61149 6.58354C6.42422 6.92035 6.95334 7.71244 6.95334 8.59144C6.95225 9.79096 5.97985 10.7634 4.78033 10.7645ZM13.907 9.02602H8.69166V6.41838H13.907V9.02602ZM18.4333 16.4459L14.7456 12.7571L17.2044 10.2983L20.8921 13.986L18.4333 16.4459Z" fill="#0A80FD"/>
<path d="M17.8003 18.9515L13.4606 16.584C13.4682 16.3732 13.4726 16.17 13.4726 15.9799C13.4726 12.503 11.7342 11.6338 11.2996 11.6338C10.8649 11.6338 9.12651 12.503 9.12651 15.9799C9.12651 16.1711 9.13086 16.3743 9.13846 16.584L4.79878 18.9515C4.51955 19.1036 4.3457 19.397 4.3457 19.7153V20.6823C4.3457 20.9377 4.45761 21.18 4.6532 21.3451C4.84768 21.5103 5.10627 21.582 5.35836 21.5396L9.58929 20.8344C9.67621 21.3821 9.77291 21.9221 9.87503 22.4392L8.2572 24.057C8.00839 24.3059 7.93449 24.6796 8.06924 25.0045C8.20288 25.3294 8.52014 25.5412 8.87217 25.5412H10.6932C10.904 26.0845 11.1115 26.4104 11.2995 26.4104C11.4874 26.4104 11.695 26.0845 11.9057 25.5412H13.7268C14.0788 25.5412 14.396 25.3294 14.5297 25.0045C14.6644 24.6796 14.5905 24.3059 14.3417 24.057L12.7239 22.4392C12.826 21.922 12.9227 21.382 13.0096 20.8344L17.2406 21.5396H17.2417C17.4937 21.582 17.7512 21.5103 17.9457 21.3451C18.1413 21.18 18.2532 20.9377 18.2532 20.6823V19.7153C18.2532 19.397 18.0796 19.1036 17.8003 18.9515Z" fill="#0A80FD"/>
</svg>
