<svg width="24" height="28" viewBox="0 0 24 28" fill="none" xmlns="http://www.w3.org/2000/svg">
<path d="M4.52693 17.131C6.15874 17.131 7.48158 15.8082 7.48158 14.1763C7.48158 12.5445 6.15874 11.2217 4.52693 11.2217C2.89511 11.2217 1.57227 12.5445 1.57227 14.1763C1.57227 15.8082 2.89511 17.131 4.52693 17.131Z" fill="#0A80FD"/>
<path d="M5.63856 17.9138H3.4415C1.85053 17.9138 0.512096 19.1007 0.335322 20.6917L0.00702625 23.2423C-0.0434807 23.5706 0.183801 23.8736 0.512096 23.9494C1.77477 24.2272 3.13846 24.3535 4.5274 24.3535C5.10823 24.3535 5.66381 24.3282 6.19413 24.2777L6.47192 22.0049C6.62344 20.818 7.20427 19.8078 8.06289 19.1007C7.50732 18.3684 6.59819 17.9138 5.63856 17.9138Z" fill="#0A80FD"/>
<path d="M19.4781 17.131C21.1099 17.131 22.4328 15.8082 22.4328 14.1763C22.4328 12.5445 21.1099 11.2217 19.4781 11.2217C17.8463 11.2217 16.5234 12.5445 16.5234 14.1763C16.5234 15.8082 17.8463 17.131 19.4781 17.131Z" fill="#0A80FD"/>
<path d="M23.6942 20.6915C23.5175 19.1005 22.1538 17.9136 20.5881 17.9136H18.391C17.4061 17.9136 16.5222 18.3681 15.9414 19.1005C16.8 19.8076 17.4061 20.8177 17.5324 22.0046L17.8102 24.2775C18.3405 24.328 18.9213 24.3532 19.4769 24.3532C20.8911 24.3532 22.2295 24.2017 23.4922 23.9492C23.8205 23.8734 24.0225 23.5704 23.9973 23.2421L23.6942 20.6915Z" fill="#0A80FD"/>
<path d="M13.0879 19.4038H10.8909C9.29989 19.4038 7.96145 20.5907 7.78468 22.1564L7.48164 24.707C7.43113 25.0353 7.65841 25.3636 7.98671 25.4141C9.24938 25.6919 10.6131 25.8182 12.002 25.8182C13.4162 25.8182 14.7546 25.6667 16.0173 25.4141C16.3456 25.3384 16.5476 25.0353 16.5224 24.707L16.2193 22.1564C16.0173 20.5907 14.6789 19.4038 13.0879 19.4038Z" fill="#0A80FD"/>
<path d="M12.0015 18.6207C13.6333 18.6207 14.9562 17.2979 14.9562 15.6661C14.9562 14.0343 13.6333 12.7114 12.0015 12.7114C10.3697 12.7114 9.04688 14.0343 9.04688 15.6661C9.04688 17.2979 10.3697 18.6207 12.0015 18.6207Z" fill="#0A80FD"/>
<path d="M9.25062 7.91341C9.42739 8.06493 9.50315 8.31746 9.45265 8.54474L8.97283 10.5145C8.84656 11.0701 9.45265 11.4994 9.93246 11.1964L11.675 10.1357C11.877 10.0094 12.1295 10.0094 12.3315 10.1357L14.074 11.1964C14.5539 11.4994 15.1599 11.0448 15.0337 10.5145L14.5539 8.54474C14.5033 8.31746 14.5791 8.06493 14.7559 7.91341L16.2963 6.60023C16.7257 6.22142 16.4984 5.51432 15.9428 5.48907L13.9225 5.3123C13.6952 5.28704 13.468 5.13552 13.3922 4.93349L12.6093 3.06473C12.3821 2.53441 11.6497 2.53441 11.4224 3.06473L10.6396 4.90824C10.5385 5.13552 10.3365 5.28704 10.1092 5.28704L8.08896 5.46382C7.53338 5.51432 7.3061 6.22142 7.73541 6.57497L9.25062 7.91341Z" fill="#0A80FD"/>
</svg>
