<svg width="25" height="29" viewBox="0 0 25 29" fill="none" xmlns="http://www.w3.org/2000/svg">
<path d="M24.0871 13.6426L11.3822 0.908801C11.0928 0.619396 10.6877 0.474694 10.2825 0.503634L2.58434 1.02456C1.86083 1.08244 1.31096 1.63231 1.25308 2.35582L0.73215 10.054C0.70321 10.4591 0.847912 10.8643 1.13732 11.1537L2.87374 12.8901C4.3497 11.9062 6.11507 11.3274 7.9962 11.3274C13.0608 11.3274 17.1703 15.4369 17.1703 20.5015C17.1703 21.3118 17.0545 22.0932 16.852 22.8456L24.0871 15.6395C24.6369 15.0896 24.6369 14.1925 24.0871 13.6426ZM6.86752 6.63901C6.20189 7.30464 5.13109 7.30464 4.46546 6.63901C3.79983 5.97338 3.79983 4.90258 4.46546 4.23695C5.13109 3.57132 6.20189 3.57132 6.86752 4.23695C7.53315 4.90258 7.53315 5.97338 6.86752 6.63901Z" fill="#0A80FD"/>
<path d="M8.02451 12.9766C3.88603 12.9766 0.5 16.3337 0.5 20.5011C0.5 24.6685 3.85709 28.0256 8.02451 28.0256C12.1919 28.0256 15.549 24.6685 15.549 20.5011C15.549 16.3337 12.163 12.9766 8.02451 12.9766ZM8.8059 24.5527V25.5367C8.8059 25.6525 8.69014 25.7682 8.57438 25.7682H7.47464C7.35888 25.7682 7.24312 25.6525 7.24312 25.5367V24.5527C6.0855 24.4659 5.13047 23.5398 5.01471 22.4111C4.98577 22.2664 5.10153 22.1507 5.24623 22.1507H6.34597C6.46173 22.1507 6.54855 22.2375 6.57749 22.3243C6.66431 22.7295 7.0116 23.0189 7.4457 23.0189H8.60332C9.12425 23.0189 9.52941 22.5848 9.47153 22.0639C9.41365 21.6008 9.00849 21.2825 8.54544 21.2825H7.53252C6.28808 21.2825 5.15941 20.3853 5.01471 19.1409C4.84106 17.7228 5.88292 16.5362 7.24312 16.4205V15.4076C7.24312 15.2918 7.35888 15.176 7.47464 15.176H8.57438C8.69014 15.176 8.8059 15.2918 8.8059 15.4076V16.3915C9.96352 16.4784 10.9186 17.4044 11.0343 18.5331C11.0633 18.6778 10.9475 18.7936 10.8028 18.7936H9.70306C9.58729 18.7936 9.50047 18.7068 9.47153 18.6199C9.38471 18.2148 9.03743 17.9254 8.60332 17.9254H7.50358C7.04054 17.9254 6.63537 18.2437 6.57749 18.7068C6.51961 19.2277 6.92477 19.6907 7.4457 19.6907H8.5165C9.76094 19.6907 10.8896 20.5879 11.0343 21.8323C11.208 23.2504 10.1661 24.4659 8.8059 24.5527Z" fill="#0A80FD"/>
</svg>
