<svg width="27" height="28" viewBox="0 0 27 28" fill="none" xmlns="http://www.w3.org/2000/svg">
<path d="M25.1191 19.2573C25.0012 19.2677 24.888 19.3082 24.7902 19.3747C24.244 19.827 23.6156 19.5744 23.0283 19.5803C23.3631 19.2925 23.6156 18.9049 24.1442 18.9578C24.2703 18.9745 24.3985 18.9559 24.5146 18.904C24.6308 18.8522 24.7302 18.7691 24.8019 18.6641C24.8793 18.5329 24.9868 18.4218 25.1154 18.3402C25.244 18.2585 25.3902 18.2085 25.5419 18.1943C25.213 17.8772 24.0385 17.8772 23.8388 18.1943C23.4992 18.6262 23.0782 18.9873 22.5996 19.2573C22.5059 19.3298 22.3954 19.3774 22.2784 19.3959C22.1614 19.4144 22.0416 19.4031 21.9301 19.363L20.0978 18.8638C19.4341 18.6817 19.4341 18.6817 19.8687 18.1708C20.0978 17.9065 20.0684 17.7656 19.7454 17.6481C19.5105 17.5659 19.2638 17.5072 19.0289 17.4308C18.4635 17.2594 17.9511 16.9468 17.5401 16.5224C17.1291 16.098 16.833 15.5759 16.6798 15.0053C16.6254 14.8571 16.6053 14.6985 16.621 14.5414C16.621 14.418 16.6798 14.3065 16.8207 14.283C16.8747 14.2754 16.9297 14.2864 16.9766 14.3141C17.0236 14.3419 17.0597 14.3847 17.0791 14.4357C17.2024 14.6764 17.3199 14.929 17.4491 15.1756C17.6555 15.6055 17.9819 15.9665 18.3888 16.2151C18.4737 16.286 18.5832 16.3202 18.6934 16.3103C18.8035 16.3004 18.9052 16.2472 18.9761 16.1623C19.1229 15.9567 18.9232 15.8217 18.794 15.7042C18.4964 15.4405 18.2787 15.0987 18.1656 14.7176C18.0775 14.4239 17.96 14.0657 18.3477 13.9423C18.7353 13.819 18.8292 14.1949 18.9349 14.4826C19.063 15.0477 19.3113 15.5786 19.6632 16.0389C19.9192 16.3608 20.2583 16.6066 20.644 16.7496C20.7809 16.8029 20.9329 16.8029 21.0699 16.7497C21.2069 16.6964 21.319 16.5937 21.3839 16.4618C21.519 16.1623 21.2665 16.0213 21.0433 15.8745C20.8201 15.7277 20.6498 15.6572 20.456 15.5339C20.1121 15.3055 19.8716 14.9512 19.7865 14.5472C19.7219 14.2536 19.5986 13.8836 19.9098 13.7192C20.2211 13.5547 20.409 13.9071 20.597 14.1068C21.3546 14.9407 22.1122 15.7923 22.8639 16.6204C23.1796 16.9605 23.6112 17.17 24.0737 17.2077C24.3479 17.254 24.6296 17.2236 24.8876 17.12C25.1457 17.0164 25.3701 16.8435 25.5361 16.6204C25.7945 16.2562 25.63 15.9509 25.1896 15.9215C25.0721 15.9215 24.9488 15.9215 24.8313 15.9215C24.0856 15.9373 23.3602 15.6781 22.7934 15.1933C22.1842 14.6668 21.6731 14.0365 21.2841 13.3316C21.1784 13.1436 20.9728 12.8617 21.2254 12.7032C21.4779 12.5446 21.5895 12.8735 21.7304 13.0262C22.4074 13.8807 23.364 14.4692 24.432 14.6882C24.7592 14.7444 25.0958 14.6907 25.3892 14.5355C25.5309 14.4613 25.6409 14.3384 25.6992 14.1895C25.7575 14.0406 25.76 13.8757 25.7064 13.725C25.5654 13.4138 25.307 13.496 25.0604 13.5547C24.4248 13.7043 23.7563 13.61 23.1869 13.2904C22.51 12.9055 21.928 12.3737 21.4838 11.7341C21.4214 11.6495 21.3755 11.5539 21.3487 11.4522C21.2958 11.2878 21.243 11.0999 21.4015 10.9707C21.5601 10.8415 21.7246 10.9707 21.8655 11.0529C22.2355 11.3054 22.5937 11.5814 22.9696 11.8222C23.3967 12.108 23.8755 12.3075 24.3791 12.4095C24.5451 12.4547 24.7189 12.4628 24.8884 12.4334C25.0579 12.404 25.2188 12.3377 25.3599 12.2392C25.4981 12.1577 25.6062 12.0333 25.6676 11.885C25.729 11.7367 25.7406 11.5724 25.7005 11.417C25.5889 11.0822 25.2835 11.0705 25.0075 11.1057C23.6274 11.2995 22.6583 10.5713 21.7246 9.70212C21.5895 9.57292 21.4368 9.4026 21.5719 9.22054C21.7069 9.03848 21.8831 9.22054 22.0182 9.29102C22.7015 9.69101 23.4586 9.9487 24.244 10.0486C24.584 10.108 24.9338 10.0714 25.2542 9.94291C25.4241 9.878 25.5644 9.75323 25.6488 9.59207C25.7332 9.43091 25.7557 9.24448 25.7122 9.06785C25.5889 8.75071 25.2718 8.66849 24.8313 8.87992C24.5486 9.00626 24.2424 9.07156 23.9328 9.07156C23.6231 9.07156 23.3169 9.00626 23.0342 8.87992C22.5925 8.70551 22.1742 8.47666 21.7892 8.19866C21.566 8.04597 21.2489 7.87566 21.4192 7.55265C21.5895 7.22964 21.889 7.47043 22.1122 7.55265C22.7987 7.89796 23.5655 8.05214 24.3321 7.99899C24.6693 7.97584 24.9898 7.84354 25.2452 7.6221C25.5005 7.40065 25.6768 7.10209 25.7475 6.77156C25.7772 6.68385 25.7796 6.5892 25.7545 6.50009C25.7293 6.41097 25.6777 6.33157 25.6065 6.27236C25.5271 6.22369 25.4343 6.20144 25.3414 6.20883C25.2486 6.21621 25.1604 6.25285 25.0897 6.31347C24.9253 6.41919 24.7726 6.54839 24.6023 6.64823C24.1353 6.9017 23.6004 7.0018 23.0734 6.93434C22.5463 6.86688 22.0539 6.63528 21.6658 6.27236C21.5542 6.16078 21.4309 6.03158 21.5131 5.86126C21.5954 5.69095 21.7774 5.71444 21.936 5.73206C22.2003 5.76142 22.4587 5.81428 22.7171 5.83777C23.4412 5.93957 24.1793 5.8379 24.8489 5.54413C25.0713 5.44161 25.2669 5.28918 25.4207 5.09871C25.5746 4.90823 25.6823 4.68483 25.7357 4.4459C25.7693 4.34169 25.7705 4.22972 25.739 4.12484C25.7075 4.01997 25.645 3.92712 25.5595 3.85861C25.3364 3.70005 25.1367 3.81163 24.9723 3.95258C24.8078 4.09353 24.6669 4.20511 24.5083 4.3167C23.763 4.77826 22.8823 4.97099 22.0123 4.86287C21.9518 4.867 21.8911 4.85842 21.8342 4.83768C21.7772 4.81695 21.7252 4.78452 21.6815 4.74248C21.6378 4.70044 21.6034 4.64972 21.5804 4.59359C21.5575 4.53745 21.5466 4.47715 21.5484 4.41654C21.5484 4.13464 21.7598 4.05242 21.9947 4.01131L22.3118 3.9702C23.3206 3.82768 24.2689 3.40439 25.0486 2.74864C25.2727 2.58353 25.4607 2.37438 25.601 2.13403C25.7414 1.89368 25.8312 1.62719 25.8649 1.3509C25.8925 1.18038 25.8653 1.0055 25.7872 0.851424C25.7091 0.697347 25.5842 0.572014 25.4303 0.493456C25.0545 0.39949 24.9311 0.710753 24.7726 0.945667C24.1221 1.93361 23.1315 2.64834 21.9888 2.95419C21.8698 3.01225 21.7355 3.03158 21.6049 3.00946C21.4743 2.98734 21.3539 2.92489 21.2606 2.83086C21.1995 2.76911 21.1198 2.72929 21.0337 2.71761C20.9477 2.70592 20.8602 2.72303 20.7849 2.76626C19.9958 3.06044 19.2334 3.42198 18.5062 3.84687C18.2973 3.96378 18.1291 4.14174 18.0241 4.35691C17.9192 4.57208 17.8825 4.81419 17.9189 5.05081C17.9614 5.3102 17.9412 5.57598 17.8602 5.82602C17.7917 6.05576 17.6449 6.2543 17.4455 6.38729C17.246 6.52027 17.0063 6.57934 16.7679 6.55426C16.5266 6.5176 16.3067 6.39536 16.1482 6.20989C15.9897 6.02442 15.9032 5.7881 15.9045 5.54413C15.876 5.26251 15.9055 4.97802 15.9914 4.70829C16.0773 4.43856 16.2176 4.18934 16.4037 3.97607C16.8714 3.38151 17.5179 2.95321 18.2478 2.75451C18.7294 2.63118 19.2227 2.52547 19.7043 2.40214C20.0037 2.35172 20.2759 2.19793 20.4736 1.96755C19.9686 2.04389 19.534 2.24945 19.1053 1.88533C19.3091 1.79957 19.533 1.7731 19.7513 1.80898C20.212 1.83664 20.6732 1.76245 21.102 1.59168C21.3129 1.51146 21.4921 1.36519 21.613 1.17471C21.6893 1.04551 21.7363 0.898684 21.613 0.7871C21.4896 0.675515 21.3663 0.7871 21.2606 0.857575C21.2126 0.903664 21.1675 0.952699 21.1255 1.0044C20.9292 1.21926 20.6827 1.38214 20.408 1.47847C20.1334 1.5748 19.8391 1.60159 19.5516 1.55645C19.4753 1.55645 19.3813 1.55645 19.3519 1.46248C19.3226 1.36851 19.4048 1.32153 19.4576 1.26868C19.5569 1.16112 19.6847 1.0841 19.8262 1.04665C19.9677 1.0092 20.1169 1.01288 20.2563 1.05725C20.3327 1.08662 20.4267 1.18058 20.4971 1.05725C20.5676 0.933922 20.4971 0.875193 20.4443 0.798846C20.3601 0.680851 20.2463 0.5872 20.1142 0.527381C19.9822 0.467563 19.8368 0.443703 19.6925 0.458219C19.5222 0.458219 19.346 0.511074 19.1934 0.387744C18.9463 0.1969 18.653 0.0751255 18.3434 0.0348809C18.0338 -0.00536362 17.7191 0.0373677 17.4315 0.158702C16.7864 0.389228 16.1221 0.562173 15.4465 0.675515C15.3642 0.675515 15.2468 0.675515 15.2233 0.798846C15.1998 0.922176 15.2938 0.933922 15.3525 0.986777C15.7636 1.36264 15.7636 1.36264 15.2879 1.70327C15.2233 1.74712 15.1624 1.79623 15.1058 1.85009C14.9825 1.97929 14.7417 2.06739 14.7887 2.26119C14.8357 2.455 15.0765 2.31992 15.2057 2.41388C15.2057 2.41388 15.2057 2.46087 15.235 2.50198C14.9216 2.59664 14.623 2.73504 14.3482 2.91308C14.2484 3.00117 14.0722 3.10101 14.313 3.23022C14.5538 3.35942 14.4305 3.43577 14.313 3.54148L13.6435 4.26971C13.6201 4.30608 13.5879 4.33599 13.55 4.35671C13.512 4.37742 13.4694 4.38828 13.4262 4.38828C13.3829 4.38828 13.3404 4.37742 13.3024 4.35671C13.2645 4.33599 13.2323 4.30608 13.2089 4.26971L12.5394 3.54148C12.463 3.45338 12.3515 3.3418 12.5394 3.25371C12.8272 3.09514 12.6392 2.9953 12.5042 2.88959C12.2256 2.72836 11.935 2.58895 11.635 2.47261C11.7642 2.27881 12.093 2.47261 12.0989 2.22595C12.1048 1.97929 11.8523 1.90882 11.6937 1.77374L11.5645 1.67978C11.1182 1.35677 11.1182 1.35677 11.5293 0.980904C11.5821 0.928049 11.6702 0.886939 11.6585 0.798846C11.6467 0.710753 11.5586 0.687261 11.4823 0.681388C10.7305 0.541816 9.99033 0.345492 9.2682 0.0941005C9.04319 0.0132503 8.8029 -0.0160582 8.56505 0.00833648C8.3272 0.0327312 8.09786 0.110207 7.89394 0.235049C7.67978 0.381606 7.42517 0.457579 7.16571 0.452346C7.01602 0.433329 6.86411 0.4609 6.73065 0.531307C6.59719 0.601715 6.48867 0.711539 6.41985 0.845829C6.37874 0.922176 6.33176 1.02202 6.41985 1.10424C6.50795 1.18646 6.56668 1.10424 6.63715 1.10424C6.78078 1.05471 6.93597 1.0495 7.08259 1.0893C7.22921 1.12909 7.36048 1.21205 7.45935 1.3274C7.58268 1.44486 7.62379 1.57407 7.40062 1.59168C6.92683 1.6664 6.44229 1.55943 6.04399 1.29217C5.89256 1.16431 5.74936 1.027 5.61527 0.881065C5.52718 0.804718 5.41559 0.734244 5.29814 0.816465C5.18068 0.898685 5.18655 1.04551 5.24528 1.17471C5.37683 1.39802 5.58583 1.56522 5.83257 1.64454C6.31696 1.8213 6.8338 1.89141 7.34777 1.85009C7.50046 1.85009 7.67665 1.78549 7.82347 1.9558C7.4065 2.28468 6.97191 2.07913 6.4962 2.0204C6.69366 2.25309 6.96937 2.40556 7.27142 2.44912C7.72951 2.56658 8.19346 2.66642 8.65155 2.78388C9.10274 2.8862 9.52584 3.08672 9.89072 3.37116C10.2424 3.59437 10.5315 3.9034 10.7308 4.26916C10.9302 4.63492 11.0331 5.04538 11.0301 5.46191C11.0485 5.72686 10.9642 5.98873 10.7947 6.19321C10.6252 6.39769 10.3835 6.52908 10.1198 6.56013C9.83818 6.57131 9.56357 6.47082 9.3557 6.28055C9.14782 6.09027 9.02351 5.8256 9.00979 5.54413C8.98633 5.40021 8.98633 5.25345 9.00979 5.10953C9.05675 4.84565 9.01688 4.57366 8.89617 4.33436C8.77546 4.09505 8.58041 3.90134 8.34028 3.78226C7.63939 3.39163 6.91122 3.05208 6.16145 2.76626C6.0792 2.71925 5.98355 2.70123 5.88984 2.71507C5.79613 2.72892 5.70978 2.77383 5.64464 2.84261C5.56041 2.9255 5.45313 2.98105 5.33683 3.00201C5.22053 3.02296 5.10061 3.00834 4.99275 2.96006C3.79177 2.65365 2.75491 1.89652 2.09742 0.845829C1.96822 0.646151 1.83901 0.417109 1.55124 0.475838C1.26347 0.534567 1.15189 0.792973 1.08729 1.06313C1.03612 1.28303 1.0567 1.51353 1.14602 1.72089C1.28635 2.10658 1.52528 2.44878 1.83902 2.7134C2.61569 3.37556 3.56121 3.80867 4.5699 3.96432C4.72259 3.96432 4.88116 3.99956 5.03973 4.0348C5.13218 4.0435 5.21814 4.08611 5.28104 4.15443C5.34393 4.22275 5.37931 4.31193 5.38036 4.40479C5.38741 4.49841 5.36126 4.59153 5.30648 4.66778C5.25171 4.74404 5.17182 4.79856 5.08084 4.82176C4.94242 4.86655 4.7976 4.88837 4.65212 4.88637C4.17208 4.92133 3.68989 4.85984 3.23399 4.70552C2.77808 4.5512 2.35769 4.30717 1.99758 3.98781C1.94038 3.93301 1.875 3.88744 1.80378 3.85274C1.74228 3.8122 1.67115 3.78868 1.59761 3.78456C1.52407 3.78044 1.45075 3.79587 1.38512 3.82929C1.31948 3.8627 1.26386 3.91291 1.22393 3.9748C1.18399 4.03669 1.16116 4.10805 1.15776 4.18162C1.13818 4.33926 1.16046 4.49928 1.22236 4.64558C1.36077 4.96642 1.58236 5.24446 1.86423 5.45096C2.1461 5.65746 2.47802 5.78492 2.82566 5.82015C3.51148 5.96114 4.21882 5.96114 4.90465 5.82015C5.09258 5.82015 5.33337 5.71444 5.42147 5.9611C5.50956 6.20776 5.30988 6.31347 5.15719 6.44268L5.02798 6.53664C4.58616 6.87734 4.04188 7.05819 3.48402 7.04965C2.92616 7.04112 2.38767 6.84371 1.95647 6.48966C1.75092 6.34284 1.52775 6.16665 1.28109 6.36633C1.03443 6.56601 1.1284 6.83029 1.21649 7.0652C1.31608 7.34692 1.49704 7.59274 1.73646 7.77152C1.97588 7.9503 2.26298 8.05399 2.56138 8.06946C3.03646 8.11157 3.51506 8.0515 3.96499 7.89328C4.32625 7.77264 4.68106 7.63347 5.02798 7.4763C5.19243 7.39995 5.37448 7.36472 5.48607 7.54678C5.59765 7.72883 5.48607 7.88153 5.37448 8.00486C5.29053 8.08869 5.19801 8.16349 5.09846 8.22803C4.10594 8.87992 3.09581 9.4026 1.86838 8.81532C1.76912 8.76543 1.65526 8.75281 1.54749 8.77975C1.43972 8.80669 1.34519 8.87141 1.28109 8.96214C1.22038 9.05677 1.1881 9.16684 1.1881 9.27927C1.1881 9.39171 1.22038 9.50178 1.28109 9.59641C1.32792 9.69158 1.39378 9.77612 1.47459 9.84481C1.55541 9.9135 1.64945 9.96488 1.75092 9.99576C2.05072 10.0994 2.37142 10.1276 2.68471 10.078C3.49799 9.98081 4.28101 9.71045 4.981 9.28515C5.09846 9.21467 5.23941 9.09134 5.36861 9.23816C5.39006 9.26777 5.40541 9.30134 5.41378 9.33693C5.42214 9.37252 5.42336 9.40941 5.41735 9.44547C5.41134 9.48153 5.39822 9.51604 5.37877 9.54699C5.35931 9.57795 5.3339 9.60472 5.30401 9.62577C4.71011 10.3012 3.94533 10.8043 3.08994 11.0822C2.66022 11.1439 2.22534 11.1616 1.79203 11.1351C1.26347 11.1351 1.05205 11.5403 1.31633 11.9984C1.43844 12.189 1.61823 12.3357 1.82949 12.417C2.04076 12.4984 2.27248 12.5101 2.4909 12.4506C3.06106 12.3322 3.59955 12.094 4.07071 11.7518C4.43482 11.5168 4.78132 11.2467 5.13957 11.0059C5.18715 10.9597 5.24871 10.9306 5.31461 10.9232C5.3805 10.9157 5.44701 10.9304 5.50369 10.9648C5.55593 11.0064 5.5937 11.0634 5.61163 11.1277C5.62956 11.1921 5.62672 11.2604 5.60353 11.323C5.5804 11.4396 5.54085 11.5523 5.48607 11.6578C5.12981 12.3211 4.57609 12.8572 3.9016 13.1918C3.2271 13.5264 2.46524 13.643 1.72156 13.5254C1.3222 13.4608 1.13427 13.6722 1.18713 14.0657C1.2101 14.1971 1.27054 14.3191 1.36118 14.417C1.45181 14.515 1.56879 14.5847 1.69807 14.6177C2.20585 14.7752 2.75481 14.7311 3.23089 14.4944C4.04441 14.1405 4.75692 13.5895 5.30401 12.8911C5.39797 12.7736 5.50956 12.5974 5.68575 12.6914C5.86193 12.7854 5.78559 12.9968 5.72098 13.1436C5.44644 13.6931 5.08779 14.1964 4.65799 14.6353C4.32476 15.0639 3.89263 15.4052 3.39862 15.6303C2.9046 15.8553 2.36342 15.9572 1.8214 15.9274C1.59823 15.9274 1.35157 15.9274 1.23411 16.174C1.20251 16.2905 1.20754 16.4138 1.24852 16.5273C1.2895 16.6408 1.36444 16.7389 1.46315 16.8083C1.70581 17.0215 2.0036 17.1622 2.32245 17.2141C2.6413 17.266 2.96833 17.2272 3.26612 17.1019C3.81199 16.8403 4.28876 16.454 4.65799 15.9743C5.29226 15.2872 5.91479 14.5883 6.54318 13.9012C6.66651 13.772 6.81334 13.6135 7.01889 13.7133C7.22444 13.8131 7.21857 14.0187 7.20682 14.2007C7.19826 14.4636 7.12787 14.7208 7.00134 14.9514C6.87482 15.182 6.69572 15.3796 6.47858 15.528C6.27303 15.669 6.04399 15.7747 5.8267 15.9039C5.6094 16.0331 5.4567 16.1505 5.52718 16.3972C5.59765 16.6439 5.8032 16.7319 6.04399 16.7613C6.22852 16.7699 6.41058 16.7161 6.5608 16.6086C7.10956 16.2904 7.52624 15.7862 7.73538 15.1874C7.84696 14.8879 7.92918 14.6001 8.02902 14.283C8.12886 13.9658 8.2287 13.8131 8.52822 13.9071C8.82773 14.0011 8.84535 14.2536 8.77488 14.4944C8.67717 14.9479 8.43875 15.359 8.09362 15.669C7.95855 15.7864 7.76474 15.9274 7.92918 16.1329C8.09362 16.3385 8.28743 16.2739 8.47536 16.1858C8.70061 16.0675 8.90022 15.9059 9.06265 15.7101C9.31537 15.3874 9.5265 15.0342 9.69104 14.6588C9.77914 14.4768 9.82612 14.1479 10.1256 14.2653C10.4252 14.3828 10.2842 14.6471 10.249 14.8526C10.2523 14.878 10.2523 14.9036 10.249 14.929C10.1005 15.4992 9.80987 16.0224 9.40416 16.4497C8.99844 16.877 8.49095 17.1944 7.92918 17.3721C7.6884 17.4484 7.44761 17.5072 7.20682 17.5894C6.86032 17.7068 6.82508 17.8478 7.07174 18.1297L7.23618 18.3C7.45348 18.5114 7.41824 18.6524 7.11873 18.7287C6.38462 18.9284 5.65051 19.134 4.91053 19.316C4.81228 19.3541 4.70338 19.3541 4.60514 19.316C4.10679 19.1271 3.6529 18.8372 3.272 18.4644C3.03708 18.1708 2.84328 17.9124 2.44979 18.0005C2.05631 18.0886 1.76267 17.8595 1.44553 18.0768C1.44553 18.0768 1.41617 18.1414 1.3868 18.206C1.53336 18.2144 1.67554 18.2591 1.80059 18.3359C1.92564 18.4128 2.02965 18.5195 2.10329 18.6465C2.17823 18.7568 2.28179 18.8446 2.40284 18.9004C2.5239 18.9563 2.65788 18.9782 2.79042 18.9636C3.30136 18.9167 3.56564 19.2866 3.88865 19.5862C3.61502 19.6307 3.33748 19.6465 3.06057 19.6332C2.7856 19.6665 2.50698 19.6153 2.26186 19.4863C2.11895 19.3926 1.95812 19.3297 1.78958 19.3014C1.62104 19.2732 1.44847 19.2802 1.28282 19.3222C1.11716 19.3642 0.962035 19.4401 0.827276 19.5452C0.692518 19.6503 0.58107 19.7822 0.5 19.9327C0.5 19.9327 0.5 19.9738 0.529364 20.009C0.744084 19.9432 0.976041 19.9643 1.17538 20.0677C1.31266 20.1596 1.47414 20.2087 1.63934 20.2087C1.80454 20.2087 1.96602 20.1596 2.10329 20.0677C2.61423 19.8093 3.13105 19.9973 3.74182 20.0208C3.60026 20.1902 3.41883 20.3219 3.21382 20.4039C3.0088 20.4859 2.78663 20.5157 2.56725 20.4906C2.39202 20.5089 2.22342 20.5675 2.07469 20.662C1.92596 20.7564 1.80116 20.8841 1.7101 21.0349C1.61904 21.1857 1.56419 21.3556 1.54988 21.5312C1.53556 21.7068 1.56216 21.8833 1.62759 22.0469C1.69618 21.852 1.83027 21.6869 2.00698 21.5798C2.18369 21.4727 2.39208 21.4302 2.59662 21.4596C2.68347 21.4605 2.76878 21.4367 2.84261 21.3909C2.91643 21.3452 2.97573 21.2794 3.01359 21.2012C3.28961 20.6139 3.90039 20.4965 4.38197 20.1969C4.42908 20.1722 4.48147 20.1593 4.53466 20.1593C4.58785 20.1593 4.64025 20.1722 4.68736 20.1969C5.16893 20.3966 5.71511 20.4436 6.05574 20.9193C6.12101 21.0104 6.21099 21.081 6.31505 21.1226C6.41912 21.1642 6.53292 21.1752 6.64302 21.1542C6.80173 21.1146 6.96953 21.1361 7.11313 21.2144C7.25674 21.2927 7.36564 21.4222 7.41824 21.5771C7.46054 21.4234 7.46794 21.2622 7.4399 21.1054C7.41186 20.9485 7.3491 20.7998 7.2562 20.6704C7.1633 20.5409 7.04262 20.4338 6.903 20.3569C6.76337 20.2801 6.60833 20.2355 6.44922 20.2263C6.11919 20.2323 5.79204 20.1641 5.49194 20.0266C5.41559 20.0266 5.31576 19.9855 5.30988 19.8974C5.30401 19.8093 5.42147 19.7624 5.50369 19.7447C6.04399 19.6097 6.58429 19.5039 7.11873 19.363C7.37062 19.2498 7.65194 19.2196 7.92214 19.2766C8.19234 19.3335 8.43746 19.4749 8.62218 19.6801C8.87471 19.9679 9.14487 19.8916 9.37978 19.5685C9.48549 19.4217 9.57359 19.2573 9.66755 19.0987C9.98604 18.4706 10.3491 17.8661 10.754 17.2899C10.9348 17.0254 11.1904 16.8209 11.4881 16.7026C11.5556 16.6739 11.6284 16.6597 11.7018 16.6609C11.7751 16.6622 11.8474 16.6789 11.9138 16.7099C11.9803 16.7409 12.0395 16.7856 12.0876 16.841C12.1357 16.8964 12.1715 16.9613 12.1929 17.0315C12.2643 17.2186 12.2826 17.4219 12.2457 17.6188C12.1002 18.497 11.6462 19.2945 10.9655 19.8681C10.3782 20.4142 9.74977 20.8899 8.86297 20.749C8.79888 20.7374 8.73325 20.7374 8.66917 20.749C8.5106 20.7784 8.35203 20.8253 8.29917 21.0015C8.24632 21.1777 8.36377 21.301 8.48123 21.4068C8.70908 21.5985 8.99262 21.7117 9.28985 21.7297C9.58709 21.7477 9.88221 21.6694 10.1315 21.5066C10.3018 21.3833 10.4486 21.2364 10.6131 21.1014C10.7775 20.9663 10.9009 20.9311 11.0418 21.0661C11.1828 21.2012 11.1475 21.3833 11.0418 21.5242C10.8434 21.8233 10.5837 22.0769 10.28 22.2683C9.97629 22.4596 9.63543 22.5843 9.27994 22.6342C9.17613 22.6442 9.07482 22.672 8.98043 22.7164C8.73377 22.8339 8.71615 23.0335 8.9217 23.2156C9.10287 23.352 9.32331 23.4262 9.5501 23.427C9.86001 23.4232 10.165 23.3488 10.4418 23.2093C10.7186 23.0699 10.96 22.8692 11.1475 22.6224C11.2532 22.5167 11.3648 22.3347 11.541 22.4463C11.7172 22.5578 11.6408 22.734 11.6056 22.8808C11.5477 23.2077 11.3853 23.507 11.1428 23.7336C10.9003 23.9602 10.5907 24.102 10.2607 24.1376C10.1021 24.1376 9.93183 24.1788 9.87898 24.3608C9.82612 24.5429 9.95532 24.6838 10.0904 24.7954C10.2608 24.9252 10.4709 24.992 10.685 24.9845C10.8991 24.977 11.104 24.8957 11.265 24.7543C11.5727 24.4691 11.8238 24.1284 12.005 23.75C12.0813 23.6091 12.1342 23.3918 12.3573 23.4564C12.5805 23.521 12.5688 23.7089 12.5805 23.8792C12.5906 24.1575 12.5407 24.4348 12.4343 24.6921C12.3279 24.9495 12.1675 25.181 11.9638 25.3709C11.9018 25.4204 11.8504 25.4819 11.8127 25.5518C11.7751 25.6217 11.752 25.6984 11.7449 25.7775C11.7378 25.8565 11.7467 25.9362 11.7712 26.0117C11.7957 26.0871 11.8353 26.1569 11.8875 26.2166C12.2843 26.7985 12.7261 27.3483 13.2089 27.861C13.2352 27.9035 13.272 27.9386 13.3157 27.9629C13.3593 27.9872 13.4085 28 13.4585 28C13.5085 28 13.5576 27.9872 13.6013 27.9629C13.645 27.9386 13.6818 27.9035 13.7081 27.861C14.1702 27.3558 14.5979 26.8202 14.9884 26.2577C15.0463 26.1911 15.0904 26.1135 15.118 26.0295C15.1456 25.9456 15.1561 25.857 15.149 25.7689C15.1419 25.6809 15.1173 25.5951 15.0766 25.5167C15.0359 25.4382 14.9799 25.3687 14.912 25.3122C14.7189 25.1306 14.5666 24.9099 14.4653 24.6649C14.3641 24.4198 14.3161 24.156 14.3247 23.891C14.3247 23.7089 14.3247 23.4916 14.5597 23.4388C14.7946 23.3859 14.8357 23.5973 14.9062 23.7442C15.0784 24.1158 15.3128 24.4555 15.5992 24.7484C15.7253 24.8758 15.8872 24.962 16.0633 24.9955C16.2394 25.0291 16.4216 25.0084 16.5858 24.9363C16.8148 24.8483 17.0439 24.7132 17.0321 24.4372C17.0204 24.1611 16.7267 24.1729 16.5153 24.1318C16.1857 24.0613 15.8874 23.8869 15.6643 23.6343C15.4412 23.3816 15.3052 23.064 15.2761 22.7282C15.2761 22.6224 15.2761 22.5109 15.3701 22.4463C15.4641 22.3817 15.5757 22.4463 15.652 22.5343C15.8399 22.6988 16.0103 22.8808 16.2041 23.0394C16.4105 23.2261 16.6633 23.354 16.936 23.4098C17.2087 23.4655 17.4913 23.4472 17.7545 23.3566C17.9424 23.2919 18.1421 23.1921 18.1127 22.9454C18.0834 22.6988 17.872 22.6694 17.6899 22.6577C17.3488 22.6174 17.0198 22.5068 16.7236 22.333C16.4275 22.1591 16.1706 21.9257 15.9691 21.6475C15.8341 21.489 15.6579 21.3069 15.8458 21.1014C16.0337 20.8958 16.2276 21.0603 16.392 21.1953L16.6269 21.4068C16.8049 21.5768 17.0289 21.6908 17.2711 21.7346C17.5133 21.7785 17.7631 21.7502 17.9894 21.6534C18.2889 21.5477 18.6589 21.4126 18.5767 21.0661C18.4945 20.7196 18.1304 20.7725 17.8485 20.7725C17.4809 20.8119 17.11 20.7382 16.7855 20.5611C16.1354 20.1545 15.5757 19.6188 15.1411 18.9871C14.7922 18.4919 14.6167 17.8952 14.6419 17.2899C14.6771 16.7026 15.0941 16.5205 15.5874 16.7966C16.0016 17.0632 16.3363 17.4365 16.5564 17.8772C16.8618 18.3998 17.1437 18.9401 17.4491 19.457C17.7545 19.9738 17.9894 19.9796 18.424 19.5979C18.5884 19.4511 18.7294 19.2338 18.9761 19.2573C19.8262 19.3545 20.6656 19.5294 21.4838 19.78C21.5082 19.7881 21.5307 19.8011 21.5499 19.8183C21.5691 19.8355 21.5846 19.8564 21.5954 19.8798C21.5954 19.9562 21.5425 19.9914 21.4838 20.0149C21.178 20.149 20.8486 20.2209 20.5147 20.2263C20.2125 20.2399 19.9271 20.3697 19.7182 20.5885C19.5092 20.8073 19.3927 21.0983 19.393 21.4009C19.393 21.4655 19.393 21.536 19.5164 21.5536C19.5725 21.4212 19.6752 21.314 19.8051 21.2523C19.935 21.1906 20.083 21.1787 20.2211 21.2188C20.3529 21.2286 20.485 21.2039 20.6044 21.1473C20.7238 21.0907 20.8265 21.004 20.9024 20.8958C21.0813 20.6944 21.3041 20.5368 21.5535 20.435C21.803 20.3331 22.0724 20.2899 22.3412 20.3085C22.6302 20.3384 22.9088 20.4325 23.1567 20.5839C23.4046 20.7353 23.6156 20.9402 23.7742 21.1836C23.8975 21.3656 24.0209 21.5477 24.244 21.5594C24.453 21.5303 24.6658 21.5725 24.848 21.679C25.0301 21.7855 25.1712 21.9503 25.2483 22.1467C25.3187 21.9765 25.3461 21.7916 25.3281 21.6084C25.3101 21.4251 25.2472 21.249 25.1451 21.0958C25.0429 20.9426 24.9046 20.8168 24.7423 20.7297C24.58 20.6426 24.3988 20.5968 24.2147 20.5963C24.0134 20.5981 23.814 20.5572 23.6298 20.4762C23.4455 20.3952 23.2805 20.276 23.1458 20.1265C23.827 20.0795 24.3967 19.9033 24.9488 20.2263C25.0302 20.2726 25.1223 20.297 25.216 20.297C25.3097 20.297 25.4018 20.2726 25.4832 20.2263C25.6206 20.1369 25.7745 20.0758 25.9359 20.0465C26.0972 20.0173 26.2628 20.0205 26.4229 20.056C26.2884 19.8255 26.099 19.632 25.8715 19.4926C25.644 19.3532 25.3855 19.2724 25.1191 19.2573ZM17.9894 0.881065C18.2302 0.881065 18.424 0.99265 18.424 1.1336C18.424 1.27455 18.2302 1.38613 17.9894 1.38613C17.7486 1.38613 17.5548 1.26868 17.5548 1.1336C17.5548 0.998523 17.7486 0.881065 17.9894 0.881065ZM8.91582 1.38613C8.67504 1.38613 8.48123 1.26868 8.48123 1.1336C8.48123 0.998523 8.67504 0.881065 8.91582 0.881065C9.15661 0.881065 9.35042 0.99265 9.35042 1.1336C9.35042 1.27455 9.15661 1.38613 8.91582 1.38613Z" fill="#0A80FD"/>
</svg>
