<svg width="20" height="20" viewBox="0 0 20 20" fill="none" xmlns="http://www.w3.org/2000/svg">
<path fill-rule="evenodd" clip-rule="evenodd" d="M10.3724 0.7436L13.0834 6.50509L19.1437 7.42921C19.3006 7.45359 19.4308 7.56878 19.4796 7.72653C19.5285 7.88428 19.4877 8.05735 19.3742 8.17325L14.9898 12.657L16.025 18.9893C16.0522 19.1526 15.9882 19.3179 15.8601 19.4155C15.7319 19.5131 15.5618 19.526 15.4215 19.4488L10.0006 16.4597L4.57974 19.4497C4.43952 19.5271 4.26933 19.5144 4.14107 19.4169C4.01281 19.3193 3.94886 19.1539 3.97623 18.9906L5.01142 12.657L0.62572 8.17325C0.512291 8.05735 0.471459 7.88428 0.520328 7.72653C0.569197 7.56878 0.69933 7.45359 0.85622 7.42921L6.91655 6.50509L9.62885 0.7436C9.69787 0.594623 9.84228 0.5 10.0006 0.5C10.159 0.5 10.3034 0.594623 10.3724 0.7436Z" fill="#0A80FD"/>
</svg>
