<svg width="28" height="29" viewBox="0 0 28 29" fill="none" xmlns="http://www.w3.org/2000/svg">
<path d="M3.97267 14.4974C3.98068 8.96558 8.49031 4.4716 14.0156 4.4898C19.5401 4.508 24.0349 9.01691 24.0123 14.5185C23.9897 20.0467 19.4965 24.5243 13.9817 24.5141C8.45755 24.5036 3.96466 20.0074 3.97267 14.4974ZM13.8718 14.4148C13.7488 14.3649 13.669 14.3347 13.5908 14.3008C12.4484 13.8032 11.3061 13.3045 10.1638 12.8065C9.69234 12.6012 9.2242 12.3886 8.74768 12.1953C8.46483 12.0806 8.16923 12.2142 8.04837 12.481C7.92606 12.7511 8.02726 13.0442 8.2981 13.1967C8.35853 13.2309 8.42369 13.2575 8.4874 13.2855C10.3323 14.0912 12.1772 14.8968 14.0221 15.7024C14.6468 15.975 14.985 15.757 14.9854 15.0799C14.9861 13.4563 14.9857 11.8327 14.9854 10.2087C14.9854 9.96448 14.9897 9.71985 14.9821 9.47559C14.9741 9.21421 14.85 9.02637 14.5955 8.94264C14.2089 8.81523 13.874 9.09372 13.8725 9.55349C13.8685 10.8367 13.8711 12.1199 13.8711 13.4031C13.8718 13.7257 13.8718 14.0478 13.8718 14.4148Z" fill="#0A80FD"/>
<path d="M23.4402 22.9725C23.4565 22.7133 23.4711 22.4658 23.4882 22.2183C23.5126 21.864 23.3535 21.6362 23.063 21.6121C22.7638 21.5874 22.5738 21.7752 22.5494 22.1342C22.4962 22.9267 22.4427 23.7192 22.4001 24.5124C22.3772 24.9423 22.6182 25.1407 23.0397 25.0646C23.7776 24.9314 24.5159 24.7992 25.2541 24.6678C25.6062 24.6052 25.794 24.3992 25.7507 24.117C25.7055 23.8233 25.446 23.6744 25.0903 23.737C24.889 23.7727 24.6877 23.8076 24.4303 23.8524C24.7084 23.5044 24.9556 23.2135 25.1828 22.9074C27.344 19.9911 28.276 16.7177 27.909 13.1105C27.2942 7.06249 23.0368 2.2023 17.1104 0.860836C9.08709 -0.954957 1.79407 4.30567 0.295344 11.6264C-1.19646 18.9143 3.09366 25.9711 10.2163 27.9812C12.398 28.5968 14.6033 28.6518 16.8242 28.2139C17.1399 28.1516 17.3827 28.0147 17.4482 27.6711C17.5312 27.2364 17.1537 26.8695 16.695 26.9587C15.7412 27.144 14.782 27.247 13.8086 27.2379C8.11913 27.1847 3.0649 23.2241 1.65865 17.7097C-0.134214 10.6795 4.16064 3.66534 11.2436 2.05668C18.1704 0.483335 25.2094 5.08944 26.4908 12.0643C27.2192 16.0304 26.2902 19.5907 23.7288 22.7152C23.6626 22.796 23.5901 22.8717 23.5188 22.9485C23.5093 22.9583 23.4897 22.958 23.4402 22.9725Z" fill="#0A80FD"/>
</svg>
