<svg width="29" height="27" viewBox="0 0 29 27" fill="none" xmlns="http://www.w3.org/2000/svg">
<path d="M24.7241 4.92274L21.9944 6.39261C21.9156 6.43635 21.85 6.4976 21.8107 6.57196L20.297 9.28423L18.8315 6.55009C18.7878 6.47572 18.7266 6.4101 18.6478 6.36636L15.9355 4.85712L18.6697 3.38725C18.744 3.3435 18.814 3.28225 18.8534 3.20789L18.9497 3.03728L18.9628 3.0154L20.3627 0.5L21.8325 3.23413C21.8763 3.3085 21.9375 3.36975 22.0119 3.41787L24.7241 4.92274Z" fill="#0A80FD"/>
<path d="M19.8511 10.3997L18.0838 7.10565L14.7547 5.25082C14.606 5.17207 14.5185 5.01459 14.5185 4.84398C14.5228 4.67774 14.6147 4.52463 14.7634 4.44589L17.8869 2.76604C17.0557 1.85612 15.7127 1.58489 14.5928 2.11859C13.7966 2.49481 12.9086 2.84915 12.0249 3.13788C10.8919 3.50972 9.64951 3.50972 8.52086 3.14225C7.62844 2.84915 6.74477 2.49481 5.94859 2.11859C4.81556 1.58052 3.45068 1.86049 2.61951 2.80103C-0.20212 6.01638 -0.206495 10.5572 2.60638 15.2643C2.6545 15.3387 2.672 15.4262 2.672 15.5137C2.55389 18.9215 3.2232 22.5874 4.49622 25.5665C4.6187 25.8509 4.81994 26.0915 5.06492 26.2577C5.32302 26.424 5.61612 26.5158 5.91359 26.5158C6.72727 26.5158 7.40096 25.8771 7.44471 25.0634C7.71156 20.3739 8.32838 17.596 9.38266 16.3098C9.82449 15.7805 10.7169 15.7805 11.1544 16.3098C12.213 17.6004 12.8299 20.3782 13.0923 25.0634C13.1098 25.4572 13.2804 25.8203 13.5692 26.0915C13.8535 26.3671 14.2254 26.5114 14.6234 26.5114C15.2359 26.5114 15.7958 26.1352 16.0408 25.5622C17.3182 22.5787 17.9832 18.9171 17.865 15.5093C17.865 15.4174 17.8825 15.3343 17.9307 15.2599C18.9193 13.6151 19.5624 11.9877 19.8511 10.3997ZM5.97483 4.81773C4.44372 5.89826 3.52943 7.66561 3.52943 9.53794V11.4715C3.52943 11.7296 3.31944 11.9309 3.07009 11.9309C2.81199 11.9309 2.61076 11.7252 2.61076 11.4715V9.53794C2.61076 7.36813 3.67379 5.32081 5.44551 4.0653C5.65549 3.91656 5.93984 3.96468 6.0842 4.17466C6.22856 4.38902 6.18044 4.67774 5.97483 4.81773Z" fill="#0A80FD"/>
<path d="M28.4999 11.4934L27.0081 12.2939C26.9338 12.3377 26.8638 12.3989 26.8244 12.4777L25.9976 13.9563L25.197 12.4646C25.1533 12.3902 25.0921 12.3202 25.0177 12.2808L23.5391 11.454L25.0308 10.6535C25.1052 10.6097 25.1664 10.5485 25.2102 10.4741L26.037 8.99548L26.8375 10.4872C26.8813 10.5616 26.9425 10.6228 27.0213 10.6666L28.4999 11.4934Z" fill="#0A80FD"/>
<path d="M24.7499 17.7709L23.7437 18.3133C23.6693 18.3571 23.5993 18.4183 23.56 18.4927L23.0044 19.4901L22.4619 18.4839C22.4226 18.4096 22.3569 18.3483 22.2826 18.3046L21.2852 17.749L22.2913 17.2066C22.3657 17.1628 22.4357 17.1016 22.4751 17.0272L23.0306 16.0298L23.5643 17.0359C23.6081 17.1103 23.6693 17.1716 23.7481 17.2153L24.7499 17.7709Z" fill="#0A80FD"/>
</svg>
