<svg width="58" height="59" viewBox="0 0 58 59" fill="none" xmlns="http://www.w3.org/2000/svg">
<rect x="0.471436" y="0.571442" width="57.3575" height="57.8571" rx="8" fill="#0A80FD"/>
<path d="M42.9898 17.8752C42.6912 17.613 42.3009 17.4799 41.9043 17.5052C41.5078 17.5305 41.1375 17.7121 40.8748 18.0102L38.0698 21.2352L37.1248 20.1702C36.8602 19.8718 36.488 19.6907 36.0899 19.6668C35.6919 19.6429 35.3006 19.7781 35.0023 20.0427C34.7039 20.3072 34.5228 20.6795 34.4989 21.0775C34.475 21.4755 34.6102 21.8668 34.8748 22.1652L36.9598 24.5052C37.1017 24.6624 37.2753 24.7879 37.4692 24.8732C37.6631 24.9585 37.8729 25.0018 38.0848 25.0002C38.2952 24.9978 38.5028 24.9511 38.694 24.8633C38.8853 24.7754 39.0559 24.6483 39.1948 24.4902L43.1098 19.9902C43.3738 19.6935 43.5094 19.3043 43.4869 18.9079C43.4644 18.5114 43.2856 18.14 42.9898 17.8752ZM25.4998 28.0002C26.6864 28.0002 27.8465 27.6483 28.8332 26.989C29.8199 26.3297 30.5889 25.3926 31.043 24.2963C31.4972 23.1999 31.616 21.9935 31.3845 20.8296C31.153 19.6657 30.5815 18.5966 29.7424 17.7575C28.9033 16.9184 27.8342 16.347 26.6703 16.1154C25.5064 15.8839 24.3 16.0028 23.2037 16.4569C22.1073 16.911 21.1702 17.68 20.5109 18.6667C19.8516 19.6534 19.4998 20.8135 19.4998 22.0002C19.4998 23.5915 20.1319 25.1176 21.2571 26.2428C22.3823 27.368 23.9085 28.0002 25.4998 28.0002ZM34.4998 43.0002C34.8976 43.0002 35.2791 42.8421 35.5604 42.5608C35.8417 42.2795 35.9998 41.898 35.9998 41.5002C35.9998 38.7154 34.8935 36.0447 32.9244 34.0755C30.9552 32.1064 28.2845 31.0002 25.4998 31.0002C22.715 31.0002 20.0443 32.1064 18.0751 34.0755C16.106 36.0447 14.9998 38.7154 14.9998 41.5002C14.9998 41.898 15.1578 42.2795 15.4391 42.5608C15.7204 42.8421 16.1019 43.0002 16.4998 43.0002" fill="#FEFEFE"/>
</svg>
